<?xml version="1.0" encoding="utf-8"?>
<!-- Generator: Adobe Illustrator 19.0.0, SVG Export Plug-In . SVG Version: 6.00 Build 0)  -->
<svg version="1.1" id="Warstwa_1" xmlns="http://www.w3.org/2000/svg" xmlns:xlink="http://www.w3.org/1999/xlink" x="0px" y="0px"
	 viewBox="-1842 1843.1 1417.3 1417.3" style="enable-background:new -1842 1843.1 1417.3 1417.3;" xml:space="preserve">
<style type="text/css">
	.st0{fill:none;}
	.st1{fill:#000080;}
	.st2{fill:#FEFFFF;}
	.st3{fill:#FCFCFC;}
	.st4{fill:#FFFFFF;}
</style>
<g>
	<path class="st0" d="M-1701.2,2252.8c11.6-22.9,24.5-44.9,38.7-66.1C-1676.6,2207.9-1689.5,2229.9-1701.2,2252.8z"/>
	<path class="st0" d="M-1576.6,2083.2c34.6-33.9,72.7-63.7,114.4-89.3C-1503.9,2019.5-1542,2049.3-1576.6,2083.2z"/>
	<path class="st0" d="M-1067.3,1901.1c-4.8-0.4-9.7-0.8-14.5-1.1c-0.1,0.3-0.2,0.6-0.3,0.9c0.1-0.3,0.2-0.6,0.3-0.9
		C-1077,1900.2-1072.1,1900.6-1067.3,1901.1z"/>
	<path class="st0" d="M-1168.5,1900.3c-0.1-0.1-0.1-0.3-0.2-0.4c-9.3,0.6-18.5,1.4-27.8,2.4c9.2-1,18.5-1.8,27.8-2.4
		C-1168.6,1900.1-1168.6,1900.2-1168.5,1900.3z"/>
	<path class="st0" d="M-1462.2,1993.9c51.6-31.8,106.6-55.7,164.8-71.9C-1355.7,1938.2-1410.6,1962.2-1462.2,1993.9z"/>
	<path class="st0" d="M-1744.8,2730.9c-4-13.5-7.6-27.2-10.7-41C-1752.3,2703.7-1748.8,2717.4-1744.8,2730.9z"/>
	<path class="st0" d="M-953,1922c58.2,16.2,113.2,40.2,164.8,71.9C-839.8,1962.2-894.8,1938.2-953,1922z"/>
	<path class="st0" d="M-588.9,2185.4c8.9,13.3,17.4,26.9,25.3,40.9C-571.5,2212.3-579.9,2198.7-588.9,2185.4z"/>
	<path class="st0" d="M-504.2,2370L-504.2,2370L-504.2,2370L-504.2,2370z"/>
	<path class="st0" d="M-788.2,1993.9c41.6,25.6,79.8,55.4,114.4,89.3C-708.5,2049.3-746.6,2019.5-788.2,1993.9z"/>
	<path class="st0" d="M-1755.6,2686c1.4,0,2.9-0.1,4.4-0.1C-1752.7,2686-1754.2,2686-1755.6,2686c-0.6,1.6-0.1,2.7,0.1,3.9
		C-1755.7,2688.7-1756.2,2687.6-1755.6,2686z"/>
	<path class="st0" d="M-1125.4,3194.5c-11.5,0-22.9-0.4-34.4-1C-1148.3,3194.1-1136.8,3194.5-1125.4,3194.5z"/>
	<path class="st0" d="M-1078.3,3192.7c-15.6,1.2-31.2,1.8-46.8,1.8C-1109.5,3194.4-1093.9,3193.9-1078.3,3192.7z"/>
	<path class="st0" d="M-495,2689.9c-2.6,11.7-5.6,23.3-8.9,34.8C-500.7,2713.2-497.7,2701.6-495,2689.9z"/>
	<path class="st0" d="M-499.3,2686c1.5,0,3,0,4.4,0.1C-496.3,2686-497.8,2686-499.3,2686z"/>
	<path class="st1" d="M-459,2445.2c-89-72.2-177.9-144.4-266.8-216.6c-90.1-73.2-180.2-146.4-270.4-219.6
		c-37.7-30.7-129.6-108.3-129.6-108.3s-92.6,79.1-128.6,108.3c-90,73.2-180.2,146.4-270.3,219.6c-88.9,72.2-177.8,144.4-266.8,216.6
		c-4.9,33-7.5,66.7-7.5,101.1c0,37.5,3.1,74.3,8.9,110.2h0.1c1.2,0,2.4,0,3.7,0c54.9,0,109.9,0,164.8,0c1.2,0,2.4,0,3.7,0
		c2.9,0.1,2.9,0.1,2.9,2.7c0,1.4,0,2.7,0,4.1c0,94.8,0,189.5,0,284.3c0,1.5,0,3.1,0,4.6c0.1,1.5,0.4,1.8,2,1.8c1.2,0.1,2.4,0,3.7,0
		c15.4,0,30.8,0,46.2,0.1c54.8,0.2,109.5,0.5,164.3,0.7c28.2,0.1,56.5,0.1,84.7,0.2c55.8,0.2,111.7,0.5,167.5,0.7
		c7.1,0,14.2,0,21.3,0.1l0,0c7,0,14.1,0,21.1-0.1c55.8-0.2,111.7-0.5,167.5-0.7c28.2-0.1,56.5-0.1,84.7-0.2
		c54.8-0.2,109.5-0.5,164.3-0.7c15.4-0.1,30.8-0.1,46.2-0.1c1.2,0,2.4,0,3.7,0c1.6-0.1,1.9-0.4,2-1.8c0.1-1.5,0-3.1,0-4.6
		c0-94.8,0-189.5,0-284.3c0-1.4,0-2.7,0-4.1c0.1-2.7,0.1-2.7,2.9-2.7c1.2,0,2.4,0,3.7,0c54.9,0,109.9,0,164.8,0c1.2,0,2.4,0,3.7,0
		h0.1c5.9-35.9,8.9-72.7,8.9-110.2C-451.5,2511.9-454.1,2478.1-459,2445.2z"/>
	<path class="st2" d="M-464.2,2656.5c-54.9,0-109.9,0-164.8,0c-1.2,0-2.4,0-3.7,0c-2.9,0.1-2.9,0.1-2.9,2.7c0,1.4,0,2.7,0,4.1
		c0,94.8,0,189.5,0,284.3c0,1.5,0,3.1,0,4.6c-0.1,1.5-0.4,1.8-2,1.8c-1.2,0.1-2.4,0-3.7,0c-15.4,0-30.8,0-46.2,0.1
		c-54.8,0.2-109.5,0.5-164.3,0.7c-28.2,0.1-56.5,0.1-84.7,0.2c-55.8,0.2-111.7,0.5-167.5,0.7c-7,0-14.1,0-21.1,0.1l0,0
		c-7.1,0-14.2,0-21.3-0.1c-55.8-0.2-111.7-0.5-167.5-0.7c-28.2-0.1-56.5-0.1-84.7-0.2c-54.8-0.2-109.5-0.5-164.3-0.7
		c-15.4-0.1-30.8-0.1-46.2-0.1c-1.2,0-2.4,0-3.7,0c-1.6-0.1-1.9-0.4-2-1.8c-0.1-1.5,0-3.1,0-4.6c0-94.8,0-189.5,0-284.3
		c0-1.4,0-2.7,0-4.1c-0.1-2.7-0.1-2.7-2.9-2.7c-1.2,0-2.4,0-3.7,0c-54.9,0-109.9,0-164.8,0c-1.2,0-2.4,0-3.7,0h-0.1
		c52.4,320.6,329.7,565.6,664.7,567.7l0,0h0.1h0.1l0,0c334.9-2.1,612.3-247.1,664.7-567.7h-0.1
		C-461.8,2656.5-463,2656.5-464.2,2656.5z M-1644.4,2926c0,1.2,0,2.4,0,3.6l0,0l0,0c0,0.3-0.1,0.5-0.3,0.5c-0.1,0-0.1,0-0.2,0
		c-0.2,0-0.3-0.1-0.5-0.1c-0.1,0-0.2-0.1-0.3-0.2c-0.9-1.2-1.8-2.4-2.7-3.7c-31.5-43.6-57.3-90.3-77.2-140.3
		c-1.6-3.9-3.1-7.8-4.5-11.7c-2.2-5.9-4.3-11.8-6.4-17.8c-1.8-5.3-3.6-10.7-5.2-16c-0.4-1.2-0.8-2.5-1.2-3.7
		c-0.6-1.9-1.2-3.9-1.7-5.8c-4-13.5-7.6-27.2-10.7-41c-0.3-1.2-0.8-2.3-0.1-3.9c1.4,0,2.9-0.1,4.4-0.1c33.9,0,67.7,0,101.6,0l0,0
		c0.7,0,1.3,0,1.8,0c3.7,0,3.3,0.2,3.3,5.2C-1644.4,2769.4-1644.4,2847.7-1644.4,2926z M-652.9,2988.1
		c-75.3,80.3-165.1,138.3-269.5,173.4c-28.9,9.7-58.5,17.2-88.5,22.6c-17.6,3.1-35.2,5.6-53,7.3c-2.6,0.3-5.1,0.5-7.7,0.7
		c-2.2,0.2-4.5,0.4-6.7,0.5c-15.6,1.2-31.2,1.8-46.8,1.8l0,0h-0.1h-0.1c-11.5,0-22.9-0.4-34.4-1c-3.8-0.2-7.6-0.5-11.5-0.7
		c-5.1-0.4-10.2-0.8-15.3-1.3c-17.8-1.8-35.4-4.2-53-7.3c-30.1-5.4-59.6-12.9-88.5-22.6c-104.4-35.1-194.2-93.1-269.5-173.4
		c-1.1-1.2-2.6-2.1-3-3.9c1.6-1.2,3.5-0.6,5.2-0.6c40.7,0.2,81.5,0.4,122.2,0.6c27.2,0.1,54.3,0.1,81.5,0.2
		c54.6,0.2,109.2,0.5,163.8,0.7c34.3,0.1,68.5,0,102.8,0c34.2,0,68.4,0.1,102.5,0c54.6-0.2,109.2-0.5,163.8-0.7
		c27.2-0.1,54.3-0.1,81.5-0.2c40.7-0.2,81.5-0.4,122.2-0.6c1.7,0,3.6-0.6,5.2,0.6C-650.3,2986-651.8,2986.9-652.9,2988.1z
		 M-495,2689.9c-2.6,11.7-5.6,23.3-8.9,34.8c-0.9,3.2-1.8,6.4-2.8,9.6c-0.8,2.8-1.7,5.5-2.6,8.3c-3.4,10.6-7,21.1-10.9,31.6
		c-1.5,3.9-3,7.8-4.5,11.7c-19.9,50-45.7,96.7-77.2,140.3c-0.9,1.2-1.8,2.5-2.7,3.7c-0.1,0.1-0.2,0.1-0.3,0.2
		c-0.2,0.1-0.3,0.1-0.5,0.1c-0.1,0-0.2,0-0.2,0c-0.1,0-0.1-0.1-0.2-0.1c0-0.1-0.1-0.1-0.1-0.2c0-0.1,0-0.2,0-0.3l0,0
		c0-1.2,0-2.4,0-3.6c0-78.3,0-156.6,0-234.8c0-1.1,0-1.9,0-2.6c0-2.9,0.6-2.6,5.2-2.6c33.9,0,67.7,0,101.6,0c1.5,0,3,0,4.4,0.1
		C-494.3,2687.6-494.8,2688.7-495,2689.9z"/>
	<path class="st1" d="M-655.1,2983.6c-40.7,0.2-81.5,0.4-122.2,0.6c-27.2,0.1-54.3,0.1-81.5,0.2c-54.6,0.2-109.2,0.5-163.8,0.7
		c-34.2,0.1-68.4,0-102.5,0c-34.3,0-68.5,0.1-102.8,0c-54.6-0.2-109.2-0.5-163.8-0.7c-27.2-0.1-54.3-0.1-81.5-0.2
		c-40.7-0.2-81.5-0.4-122.2-0.6c-1.7,0-3.6-0.6-5.2,0.6c0.4,1.7,1.9,2.7,3,3.9c75.3,80.3,165.1,138.3,269.5,173.4
		c28.9,9.7,58.5,17.2,88.5,22.6c17.6,3.1,35.2,5.6,53,7.3c5.1,0.5,10.2,1,15.3,1.3c3.8,0.3,7.6,0.5,11.5,0.7c11.5,0.6,22.9,1,34.4,1
		h0.1h0.1l0,0c15.6,0,31.2-0.6,46.8-1.8c2.2-0.2,4.5-0.3,6.7-0.5c2.6-0.2,5.1-0.5,7.7-0.7c17.8-1.8,35.4-4.2,53-7.3
		c30.1-5.4,59.6-12.9,88.5-22.6c104.4-35.1,194.2-93.1,269.5-173.4c1.1-1.2,2.6-2.1,3-3.9C-651.5,2983-653.4,2983.6-655.1,2983.6z"
		/>
	<path class="st1" d="M-1080.5,1902.3c43,34.9,86,69.9,129,104.8c149,121,297.9,241.9,446.9,362.9c0.1,0.1,0.2,0.1,0.3,0.1h0.1l0,0
		c0.1,0,0.2-0.1,0.3-0.2c-1.4-11-19.8-62.2-32.3-89.7c-6.7-14.8-13.9-29.2-21.6-43.3c-1.9-3.5-3.9-7-5.9-10.5
		c-7.9-14-16.4-27.6-25.3-40.9c-4.5-6.7-9.1-13.2-13.8-19.7c-2.4-3.2-4.8-6.5-7.2-9.7c-9.7-12.8-19.9-25.3-30.6-37.5
		c-10.8-12.2-21.9-24-33.4-35.3c-34.6-33.9-72.7-63.7-114.4-89.3c-51.6-31.8-106.6-55.7-164.8-71.9c-3.9-1.1-7.8-2.1-11.7-3.1
		c-6.7-1.7-13.3-3.3-20-4.8c-1-0.2-2-0.4-2.9-0.7c-4.4-1-8.8-1.9-13.2-2.8c-4.9-1-9.7-1.9-14.6-2.7c-4.9-0.8-9.8-1.6-14.6-2.4
		c-7.3-1.1-14.7-2.1-22.1-2.9c-5-0.6-10.1-1.1-15.1-1.5c-4.8-0.4-9.7-0.8-14.5-1.1c-0.1,0.3-0.2,0.6-0.3,0.9
		c0.3,0.2,0.5,0.5,0.8,0.7C-1081.1,1901.8-1080.8,1902.1-1080.5,1902.3z"/>
	<path class="st1" d="M-499.3,2686c-33.9,0-67.7,0-101.6,0c-4.6,0-5.1-0.3-5.2,2.6c0,0.7,0,1.5,0,2.6c0,78.3,0,156.6,0,234.8
		c0,1.2,0,2.4,0,3.6l0,0c0,0.1,0,0.2,0,0.3s0.1,0.1,0.1,0.2c0,0.1,0.1,0.1,0.2,0.1s0.1,0,0.2,0c0.2,0,0.3-0.1,0.5-0.1
		c0.1,0,0.2-0.1,0.3-0.2c0.9-1.2,1.8-2.4,2.7-3.7c31.5-43.6,57.3-90.3,77.2-140.3c1.6-3.9,3.1-7.8,4.5-11.7
		c3.9-10.4,7.6-21,10.9-31.6c0.9-2.8,1.7-5.5,2.6-8.3c1-3.2,1.9-6.4,2.8-9.6c3.3-11.5,6.3-23.1,8.9-34.8c0.3-1.2,0.8-2.3,0.1-3.9
		C-496.3,2686-497.8,2686-499.3,2686z"/>
	<path class="st2" d="M-1254.3,2009c36-29.2,128.6-108.3,128.6-108.3s91.8,77.6,129.6,108.3c90.1,73.2,180.2,146.4,270.4,219.6
		c88.9,72.2,177.8,144.4,266.8,216.6c-48.6-325.1-328-574.7-666.1-576.8l0,0h-0.1h-0.1l0,0c-338.3,2.1-617.6,251.7-666.3,576.8
		c89-72.2,177.9-144.4,266.8-216.6C-1434.6,2155.4-1344.4,2082.2-1254.3,2009z M-1081.8,1899.9c4.8,0.3,9.7,0.7,14.5,1.1
		c5,0.4,10.1,1,15.1,1.5c7.4,0.8,14.7,1.8,22.1,2.9c4.9,0.7,9.8,1.5,14.6,2.4c4.8,0.9,9.7,1.8,14.6,2.8c4.4,0.9,8.8,1.8,13.2,2.8
		c1,0.2,2,0.4,2.9,0.7c6.7,1.5,13.4,3.1,20,4.8c3.9,1,7.8,2.1,11.7,3.1c58.2,16.2,113.2,40.2,164.8,71.9
		c41.6,25.6,79.8,55.4,114.4,89.3c11.5,11.3,22.7,23.1,33.4,35.3s20.9,24.7,30.6,37.5c2.4,3.2,4.8,6.4,7.2,9.7
		c4.7,6.5,9.3,13.1,13.8,19.7c8.9,13.3,17.4,26.9,25.3,40.9c2,3.5,3.9,7,5.9,10.5c7.7,14.1,14.9,28.6,21.6,43.3
		c12.4,27.5,30.9,78.7,32.3,89.7c-0.1,0.1-0.2,0.1-0.3,0.2h-0.1c-0.1,0-0.2,0-0.3-0.1C-653.5,2249-802.4,2128-951.4,2007
		c-43-34.9-86-69.9-129-104.8c-0.3-0.2-0.5-0.5-0.8-0.7s-0.5-0.5-0.8-0.7C-1082,1900.5-1081.9,1900.2-1081.8,1899.9z M-1746.2,2370
		L-1746.2,2370c-0.1,0-0.1,0-0.2,0s-0.2-0.1-0.3-0.1c0.6-5,4.8-18.2,10.3-33.8c0.2-0.5,0.4-1.1,0.6-1.6c1-2.7,2-5.5,3-8.3
		c0.4-1.1,0.8-2.2,1.2-3.4c1.3-3.4,2.5-6.8,3.8-10.2c0.3-0.9,0.7-1.8,1.1-2.7c0.4-1,0.8-2,1.2-3c0.3-0.7,0.5-1.4,0.8-2
		c3.6-9.1,7.2-17.7,10.4-24.7c4.2-9.3,8.6-18.4,13.2-27.4c11.6-22.9,24.5-44.9,38.7-66.1c4.7-7.1,9.6-14.1,14.6-20.9
		c2.4-3.2,4.8-6.5,7.2-9.7c9.7-12.8,19.9-25.3,30.6-37.5c10.8-12.2,21.9-24,33.4-35.3c34.6-33.9,72.7-63.7,114.4-89.3
		c51.6-31.8,106.6-55.7,164.8-71.9c3.9-1.1,7.8-2.1,11.7-3.1c6.7-1.7,13.3-3.3,20-4.8c1-0.2,2-0.4,2.9-0.7c4.4-1,8.8-1.9,13.2-2.8
		c4.9-1,9.7-1.9,14.6-2.7c4.9-0.8,9.8-1.6,14.6-2.4c4.8-0.8,9.8-1.4,14.7-2c3.1-0.4,6.1-0.7,9.2-1.1c9.2-1,18.5-1.8,27.8-2.4
		c0.1,0.1,0.1,0.3,0.2,0.4c0.1,0.2,0.1,0.3,0.2,0.5c-0.5,0.5-1,1-1.6,1.5c-192,155.7-384,311.6-575.9,467.4
		C-1745.9,2370-1746,2370-1746.2,2370z"/>
	<path class="st1" d="M-1168.3,1900.8c-0.1-0.2-0.1-0.3-0.2-0.5c-0.1-0.1-0.1-0.3-0.2-0.4c-9.3,0.6-18.5,1.4-27.8,2.4
		c-3.1,0.3-6.1,0.7-9.2,1.1c-4.9,0.6-9.8,1.3-14.7,2c-4.9,0.7-9.8,1.5-14.6,2.4c-4.8,0.9-9.7,1.8-14.6,2.7
		c-4.4,0.9-8.8,1.8-13.2,2.8c-1,0.2-2,0.4-2.9,0.7c-6.7,1.5-13.4,3.1-20,4.8c-3.9,1-7.8,2.1-11.7,3.1
		c-58.2,16.2-113.2,40.2-164.8,71.9c-41.6,25.6-79.8,55.4-114.4,89.3c-11.5,11.3-22.7,23.1-33.4,35.3
		c-10.7,12.2-20.9,24.7-30.6,37.5c-2.4,3.2-4.8,6.4-7.2,9.7c-5,6.9-9.9,13.9-14.6,20.9c-14.2,21.2-27.1,43.3-38.7,66.1
		c-4.6,9-9,18.1-13.2,27.4c-3.2,7-6.8,15.6-10.4,24.7c-0.3,0.7-0.5,1.3-0.8,2c-0.4,1-0.8,2-1.2,3c-0.4,0.9-0.7,1.8-1.1,2.7
		c-1.3,3.4-2.6,6.8-3.8,10.2c-0.4,1.1-0.8,2.3-1.2,3.4c-1,2.8-2,5.6-3,8.3c-0.2,0.5-0.4,1.1-0.6,1.6c-5.5,15.5-9.6,28.8-10.3,33.8
		c0.1,0,0.2,0.1,0.3,0.1c0,0,0,0,0.1,0h0.1c0.1,0,0.2,0,0.3-0.1c192-155.6,384-311.5,576-467.4
		C-1169.4,1901.8-1168.9,1901.3-1168.3,1900.8z"/>
	<path class="st1" d="M-1647.7,2686c-0.5,0-1.1,0-1.8,0l0,0c-33.9,0-67.7,0-101.6,0c-1.5,0-3,0-4.4,0.1c-0.6,1.6-0.1,2.7,0.1,3.9
		c3.1,13.8,6.7,27.4,10.7,41c0.6,1.9,1.2,3.9,1.7,5.8c0.4,1.2,0.8,2.5,1.2,3.7c1.7,5.4,3.4,10.7,5.2,16c2,5.9,4.2,11.9,6.4,17.8
		c1.5,3.9,3,7.8,4.5,11.7c19.9,50,45.7,96.7,77.2,140.3c0.9,1.2,1.8,2.5,2.7,3.7c0.1,0.1,0.2,0.1,0.3,0.2c0.2,0.1,0.3,0.1,0.5,0.1
		c0.1,0,0.2,0,0.2,0c0.2-0.1,0.3-0.3,0.3-0.5l0,0l0,0c0-1.2,0-2.4,0-3.6c0-78.3,0-156.6,0-234.8
		C-1644.4,2686.2-1644,2685.9-1647.7,2686z"/>
</g>
<g>
	<path class="st3" d="M-1646,2522.6c0,10-1.7,19.2-5.1,27.7s-8.1,15.8-14,21.9c-5.9,6.1-13.1,10.9-21.3,14.4
		c-8.3,3.5-17.2,5.2-26.8,5.2c-10,0-19.3-1.8-28-5.3s-16.2-8.4-22.6-14.5s-11.4-13.4-15.1-21.7s-5.5-17.3-5.5-26.9
		c0-9.6,1.8-18.6,5.5-26.9c3.7-8.3,8.7-15.6,15-21.7s13.8-11,22.4-14.5s17.8-5.3,27.7-5.3c11.2,0,21.9,2.3,31.9,7s18.1,11,24.5,19
		l-22.9,20.7c-4.3-5.4-9.3-9.6-15-12.4c-5.7-2.8-11.8-4.3-18.4-4.3c-5.3,0-10.2,1-14.8,2.9c-4.6,2-8.4,4.6-11.7,8.1
		c-3.2,3.4-5.8,7.5-7.7,12.2c-1.9,4.7-2.8,9.8-2.8,15.3c0,5.6,1,10.7,2.9,15.5c2,4.7,4.6,8.8,8,12.3c3.3,3.5,7.4,6.2,12,8.2
		c4.7,2,9.7,2.9,15.2,2.9c7.6,0,14.3-1.9,20-5.8c5.8-3.9,9.6-8.9,11.5-15.1h-35.8v-28.3h71.1v9.4L-1646,2522.6L-1646,2522.6z"/>
	<path class="st3" d="M-1646.8,2589.7l54.4-132.7h37.4l53.7,132.7h-35.3l-12.1-32h-51.8l-12.3,32H-1646.8z M-1590.7,2531.7h32.2
		l-15.9-42.5L-1590.7,2531.7z"/>
	<path class="st3" d="M-1491.7,2457h30.7l60.3,77v-77h30.8v132.7h-28.8l-62.2-80v80h-30.7V2457H-1491.7z"/>
	<path class="st3" d="M-1348,2589.7V2457h53.8c9.7,0,18.9,1.7,27.5,5.2s16,8.2,22.3,14.1s11.2,13,14.9,21.1
		c3.7,8.2,5.5,16.9,5.5,26.3c0,9.1-1.8,17.7-5.5,25.8s-8.6,15.1-14.9,21s-13.7,10.6-22.3,14c-8.6,3.4-17.8,5.1-27.5,5.1
		L-1348,2589.7L-1348,2589.7z M-1294.9,2485.8h-20.5v75.1h20.5c5.2,0,10-0.9,14.6-2.8c4.6-1.9,8.5-4.5,11.9-7.9
		c3.3-3.3,6-7.3,7.9-11.9c1.9-4.6,2.8-9.4,2.8-14.6c0-5.3-0.9-10.3-2.8-14.9c-1.9-4.6-4.5-8.6-7.9-12s-7.3-6.1-11.9-8.1
		C-1284.8,2486.8-1289.7,2485.8-1294.9,2485.8z"/>
	<path class="st3" d="M-1206.7,2589.7V2457h104.7v28.3h-72.1v23.9h47.6v27.3h-47.6v25h72.8v28.3h-105.4V2589.7z"/>
	<path class="st3" d="M-1082.1,2589.7V2457h67.9c6.8,0,13.1,1,18.9,3.1c5.8,2.1,10.7,5,14.8,8.7s7.3,8.2,9.7,13.4
		c2.3,5.2,3.5,10.9,3.5,17.1c0,8.3-2.3,15.8-6.8,22.4c-4.6,6.6-10.6,11.6-18,15l29,53.1h-36.4l-25-48.4h-24.8v48.4h-32.8V2589.7z
		 M-1017.3,2484.9h-32.2v30h32.2c5.1,0,9.1-1.4,12.2-4.2c3.1-2.8,4.6-6.4,4.6-10.8c0-4.4-1.5-8-4.6-10.8
		C-1008.1,2486.2-1012.2,2484.9-1017.3,2484.9z"/>
	<path class="st3" d="M-954.5,2522.6h73.4v25.6h-73.4V2522.6z"/>
	<path class="st3" d="M-862.9,2457h65.8c6.7,0,12.9,0.9,18.6,2.7c5.7,1.8,10.6,4.4,14.6,7.7s7.2,7.2,9.5,11.9
		c2.3,4.6,3.4,9.6,3.4,15.1c0,5.4-1.4,10.5-4.1,15.3c-2.7,4.7-6.4,8.8-11.1,12c5.8,3.2,10.5,7.3,14,12.3c3.5,5.1,5.3,10.6,5.3,16.7
		c0,11.6-4.4,21-13.1,28.3c-8.7,7.2-20,10.8-33.9,10.8h-69V2457L-862.9,2457z M-799.2,2483.7h-31.1v26.2h31.1
		c4.7,0,8.4-1.2,11.3-3.6c2.8-2.4,4.3-5.6,4.3-9.5s-1.4-7.1-4.3-9.5C-790.8,2484.9-794.5,2483.7-799.2,2483.7z M-796.4,2563
		c5.1,0,9.1-1.3,12-3.8c3-2.5,4.5-5.9,4.5-10.2s-1.5-7.7-4.5-10.2s-7-3.8-12-3.8h-33.9v28.1h33.9V2563z"/>
	<path class="st3" d="M-610.4,2531.9c0,9-1.5,17.2-4.4,24.6s-7,13.7-12.2,18.9s-11.6,9.2-19.1,12s-15.7,4.3-24.8,4.3
		s-17.4-1.4-24.9-4.2s-13.9-6.8-19.1-11.9c-5.2-5.2-9.2-11.5-12-18.9s-4.3-15.6-4.3-24.7v-74.9h32.6v74.9c0,9,2.6,16.1,7.7,21.5
		c5.1,5.4,11.9,8.1,20.2,8.1s15-2.7,20.1-8.1c5.1-5.4,7.6-12.5,7.6-21.5v-74.9h32.6L-610.4,2531.9L-610.4,2531.9z"/>
	<path class="st3" d="M-590.3,2589.7V2457h53.9c9.7,0,18.9,1.7,27.5,5.2c8.6,3.5,16,8.2,22.3,14.1s11.2,13,14.9,21.1
		c3.7,8.2,5.5,16.9,5.5,26.3c0,9.1-1.8,17.7-5.5,25.8s-8.6,15.1-14.9,21s-13.7,10.6-22.3,14c-8.6,3.4-17.8,5.1-27.5,5.1
		L-590.3,2589.7L-590.3,2589.7z M-537.2,2485.8h-20.5v75.1h20.5c5.2,0,10.1-0.9,14.6-2.8c4.6-1.9,8.5-4.5,11.9-7.9
		c3.3-3.3,6-7.3,7.9-11.9c1.9-4.6,2.8-9.4,2.8-14.6c0-5.3-0.9-10.3-2.8-14.9c-1.9-4.6-4.5-8.6-7.9-12c-3.4-3.4-7.3-6.1-11.9-8.1
		C-527.1,2486.8-532,2485.8-537.2,2485.8z"/>
</g>
<g>
	<path class="st4" d="M-1533.6,2659.3c0,2.8-0.4,5.3-1.3,7.6s-2.1,4.2-3.7,5.8s-3.5,2.8-5.8,3.7s-4.8,1.3-7.5,1.3
		c-2.8,0-5.3-0.4-7.6-1.3c-2.3-0.9-4.2-2.1-5.7-3.7c-1.6-1.6-2.8-3.5-3.6-5.8c-0.9-2.3-1.3-4.8-1.3-7.6V2636h8.5v23.3
		c0,3.2,0.9,5.7,2.7,7.6c1.8,1.9,4.1,2.9,7.1,2.9c2.9,0,5.3-1,7-2.9s2.6-4.5,2.6-7.6V2636h8.5L-1533.6,2659.3L-1533.6,2659.3z"/>
	<path class="st4" d="M-1530.3,2670.6l4.9-6.1c2.4,2.1,4.7,3.6,6.9,4.6c2.2,1,4.6,1.4,7,1.4c2.5,0,4.6-0.5,6.1-1.4s2.3-2.2,2.3-3.8
		c0-1.4-0.5-2.5-1.6-3.3c-1-0.8-2.8-1.4-5.2-1.8l-8.2-1.4c-3.5-0.6-6.2-1.8-8-3.7s-2.7-4.3-2.7-7.3c0-3.8,1.5-6.9,4.4-9.1
		c2.9-2.2,6.9-3.3,11.8-3.3c3,0,6,0.5,9,1.5s5.7,2.4,8,4.2l-4.6,6.3c-2.2-1.7-4.4-2.9-6.5-3.7s-4.3-1.2-6.5-1.2
		c-2.3,0-4.1,0.4-5.5,1.3c-1.4,0.8-2.1,2-2.1,3.4c0,1.3,0.4,2.2,1.4,2.9c0.9,0.7,2.4,1.2,4.5,1.5l7.8,1.3c4.1,0.7,7.1,2,9.2,3.9
		s3.1,4.5,3.1,7.7c0,4-1.6,7.2-4.7,9.6c-3.2,2.4-7.4,3.6-12.6,3.6c-3.3,0-6.5-0.6-9.7-1.9C-1525,2674.5-1527.9,2672.8-1530.3,2670.6
		z"/>
	<path class="st4" d="M-1488.1,2677.1v-12.2l-4.6,2.9v-7.2l4.6-2.9V2636h8.5v16.3l10.4-6.6v7.2l-10.4,6.6v10.1h22.5v7.5
		L-1488.1,2677.1L-1488.1,2677.1z"/>
	<path class="st4" d="M-1418.1,2659.3c0,2.8-0.4,5.3-1.3,7.6s-2.1,4.2-3.7,5.8s-3.5,2.8-5.8,3.7s-4.8,1.3-7.5,1.3
		c-2.8,0-5.3-0.4-7.6-1.3c-2.3-0.9-4.2-2.1-5.7-3.7c-1.6-1.6-2.8-3.5-3.6-5.8c-0.9-2.3-1.3-4.8-1.3-7.6V2636h8.5v23.3
		c0,3.2,0.9,5.7,2.7,7.6c1.8,1.9,4.1,2.9,7.1,2.9s5.3-1,7-2.9s2.6-4.5,2.6-7.6V2636h8.5L-1418.1,2659.3L-1418.1,2659.3z"/>
	<path class="st4" d="M-1370.4,2656.6c0,3-0.5,5.8-1.6,8.4c-1,2.6-2.5,4.8-4.3,6.7s-4,3.3-6.6,4.4c-2.5,1.1-5.3,1.6-8.2,1.6
		c-3.1,0-5.9-0.5-8.6-1.6s-5-2.6-6.9-4.5s-3.5-4.1-4.6-6.7c-1.1-2.6-1.7-5.4-1.7-8.3c0-3,0.6-5.8,1.7-8.3c1.1-2.6,2.6-4.8,4.6-6.7
		s4.2-3.4,6.9-4.5c2.7-1.1,5.5-1.6,8.5-1.6c3.4,0,6.6,0.7,9.6,2.1c3,1.4,5.5,3.3,7.5,5.6l-5.9,5.5c-1.5-1.7-3.1-3-5-4
		c-1.9-0.9-3.9-1.4-6.1-1.4c-1.8,0-3.6,0.3-5.1,1c-1.6,0.7-3,1.6-4.1,2.8c-1.2,1.2-2.1,2.6-2.7,4.2c-0.6,1.6-1,3.4-1,5.3
		c0,1.9,0.3,3.7,1,5.3s1.6,3.1,2.8,4.3c1.2,1.2,2.6,2.1,4.2,2.8s3.4,1,5.2,1c2.9,0,5.4-0.8,7.5-2.4c2.1-1.6,3.4-3.7,3.9-6.2h-12.2
		v-7.4h21.3L-1370.4,2656.6L-1370.4,2656.6z"/>
	<path class="st4" d="M-1364.6,2677.1V2636h8.5v41.1H-1364.6z"/>
	<path class="st4" d="M-1294.8,2656.5c0,2.9-0.6,5.7-1.7,8.3s-2.7,4.9-4.6,6.8s-4.2,3.4-6.9,4.5c-2.7,1.1-5.5,1.6-8.6,1.6
		c-3,0-5.9-0.5-8.5-1.6c-2.7-1.1-5-2.6-6.9-4.5s-3.5-4.2-4.6-6.8s-1.7-5.4-1.7-8.3c0-2.9,0.6-5.7,1.7-8.3s2.7-4.9,4.6-6.8
		c1.9-1.9,4.2-3.4,6.9-4.5c2.7-1.1,5.5-1.6,8.5-1.6c3.1,0,5.9,0.5,8.6,1.6s5,2.6,6.9,4.5s3.5,4.2,4.6,6.8
		S-1294.8,2653.6-1294.8,2656.5z M-1303.6,2656.5c0-1.9-0.3-3.7-1-5.3s-1.6-3-2.7-4.2c-1.2-1.2-2.5-2.1-4.1-2.8s-3.3-1-5.2-1
		c-1.8,0-3.6,0.3-5.1,1c-1.6,0.7-3,1.6-4.1,2.8c-1.2,1.2-2.1,2.6-2.7,4.2c-0.7,1.6-1,3.4-1,5.3c0,1.9,0.3,3.6,1,5.3
		c0.7,1.6,1.6,3.1,2.7,4.3c1.2,1.2,2.5,2.1,4.1,2.8s3.3,1,5.1,1c1.8,0,3.6-0.3,5.2-1s3-1.6,4.1-2.8c1.2-1.2,2.1-2.6,2.7-4.3
		C-1303.9,2660.2-1303.6,2658.4-1303.6,2656.5z"/>
	<path class="st4" d="M-1248.1,2656.6c0,3-0.5,5.8-1.6,8.4c-1,2.6-2.5,4.8-4.3,6.7s-4,3.3-6.6,4.4c-2.5,1.1-5.3,1.6-8.2,1.6
		c-3.1,0-5.9-0.5-8.6-1.6s-5-2.6-6.9-4.5s-3.5-4.1-4.6-6.7c-1.1-2.6-1.7-5.4-1.7-8.3c0-3,0.6-5.8,1.7-8.3c1.1-2.6,2.6-4.8,4.6-6.7
		s4.2-3.4,6.9-4.5c2.7-1.1,5.5-1.6,8.5-1.6c3.4,0,6.6,0.7,9.6,2.1c3,1.4,5.5,3.3,7.5,5.6l-5.9,5.5c-1.5-1.7-3.1-3-5-4
		c-1.9-0.9-3.9-1.4-6.1-1.4c-1.8,0-3.6,0.3-5.1,1c-1.6,0.7-3,1.6-4.1,2.8c-1.2,1.2-2.1,2.6-2.7,4.2c-0.6,1.6-1,3.4-1,5.3
		c0,1.9,0.3,3.7,1,5.3s1.6,3.1,2.8,4.3c1.2,1.2,2.6,2.1,4.2,2.8s3.4,1,5.2,1c2.9,0,5.4-0.8,7.5-2.4s3.4-3.7,3.9-6.2h-12.2v-7.4h21.3
		v2.6L-1248.1,2656.6L-1248.1,2656.6z"/>
	<path class="st4" d="M-1200.3,2656.5c0,2.9-0.6,5.7-1.7,8.3s-2.7,4.9-4.6,6.8s-4.2,3.4-6.9,4.5c-2.7,1.1-5.5,1.6-8.6,1.6
		c-3,0-5.9-0.5-8.5-1.6c-2.7-1.1-5-2.6-6.9-4.5s-3.5-4.2-4.6-6.8s-1.7-5.4-1.7-8.3c0-2.9,0.6-5.7,1.7-8.3s2.7-4.9,4.6-6.8
		c1.9-1.9,4.2-3.4,6.9-4.5c2.7-1.1,5.5-1.6,8.5-1.6c3.1,0,5.9,0.5,8.6,1.6s5,2.6,6.9,4.5s3.5,4.2,4.6,6.8
		S-1200.3,2653.6-1200.3,2656.5z M-1209.1,2656.5c0-1.9-0.3-3.7-1-5.3s-1.6-3-2.7-4.2c-1.2-1.2-2.5-2.1-4.1-2.8s-3.3-1-5.2-1
		c-1.8,0-3.6,0.3-5.1,1c-1.6,0.7-3,1.6-4.1,2.8c-1.2,1.2-2.1,2.6-2.7,4.2c-0.7,1.6-1,3.4-1,5.3c0,1.9,0.3,3.6,1,5.3
		c0.7,1.6,1.6,3.1,2.7,4.3c1.2,1.2,2.5,2.1,4.1,2.8s3.3,1,5.1,1c1.8,0,3.6-0.3,5.2-1s3-1.6,4.1-2.8c1.2-1.2,2.1-2.6,2.7-4.3
		C-1209.4,2660.2-1209.1,2658.4-1209.1,2656.5z M-1220.9,2623.2h9.2l-7.9,7.6h-6.5L-1220.9,2623.2z"/>
	<path class="st4" d="M-1194.5,2677.1V2636h8.5v33.6h22.5v7.5H-1194.5z"/>
	<path class="st4" d="M-1157.6,2635.9h8.1l20.5,26.6v-26.6h8v41.1h-7.5l-21-27.5v27.5h-8.1V2635.9z"/>
	<path class="st4" d="M-1071.6,2656.5c0,2.9-0.6,5.7-1.7,8.3s-2.7,4.9-4.6,6.8c-1.9,1.9-4.2,3.4-6.9,4.5c-2.7,1.1-5.5,1.6-8.6,1.6
		c-3,0-5.9-0.5-8.5-1.6c-2.7-1.1-5-2.6-6.9-4.5s-3.5-4.2-4.6-6.8s-1.7-5.4-1.7-8.3c0-2.9,0.6-5.7,1.7-8.3s2.7-4.9,4.6-6.8
		c1.9-1.9,4.2-3.4,6.9-4.5c2.7-1.1,5.5-1.6,8.5-1.6c3.1,0,5.9,0.5,8.6,1.6s5,2.6,6.9,4.5s3.5,4.2,4.6,6.8
		C-1072.1,2650.8-1071.6,2653.6-1071.6,2656.5z M-1080.3,2656.5c0-1.9-0.3-3.7-1-5.3s-1.6-3-2.7-4.2c-1.2-1.2-2.5-2.1-4.1-2.8
		s-3.3-1-5.2-1c-1.8,0-3.6,0.3-5.1,1c-1.6,0.7-3,1.6-4.1,2.8c-1.2,1.2-2.1,2.6-2.7,4.2c-0.7,1.6-1,3.4-1,5.3c0,1.9,0.3,3.6,1,5.3
		c0.7,1.6,1.6,3.1,2.7,4.3c1.2,1.2,2.5,2.1,4.1,2.8s3.3,1,5.1,1c1.8,0,3.6-0.3,5.2-1s3-1.6,4.1-2.8c1.2-1.2,2.1-2.6,2.7-4.3
		C-1080.7,2660.2-1080.3,2658.4-1080.3,2656.5z"/>
	<path class="st4" d="M-1065.8,2635.9h19.3c4.1,0,7.5,1,10.1,3.1s3.9,4.8,3.9,8.1c0,1.8-0.5,3.4-1.4,4.9s-2.1,2.7-3.7,3.7
		c2,0.9,3.5,2.2,4.7,3.8s1.8,3.4,1.8,5.4c0,3.6-1.3,6.4-4,8.6c-2.6,2.2-6.1,3.3-10.4,3.3h-20.3V2635.9L-1065.8,2635.9z
		 M-1046.9,2643h-10.3v9.8h10.3c1.8,0,3.3-0.4,4.3-1.3c1.1-0.9,1.6-2.1,1.6-3.6s-0.5-2.7-1.6-3.6
		C-1043.7,2643.4-1045.1,2643-1046.9,2643z M-1046.1,2670c2,0,3.5-0.5,4.7-1.4c1.2-1,1.8-2.3,1.8-3.9c0-1.6-0.6-2.8-1.8-3.8
		c-1.2-1-2.7-1.5-4.7-1.5h-11.1v10.6L-1046.1,2670L-1046.1,2670z"/>
	<path class="st4" d="M-989.3,2659.3c0,2.8-0.4,5.3-1.3,7.6c-0.9,2.3-2.1,4.2-3.7,5.8c-1.6,1.6-3.5,2.8-5.8,3.7s-4.8,1.3-7.5,1.3
		c-2.8,0-5.3-0.4-7.6-1.3c-2.3-0.9-4.2-2.1-5.7-3.7c-1.5-1.6-2.8-3.5-3.6-5.8c-0.9-2.3-1.3-4.8-1.3-7.6V2636h8.5v23.3
		c0,3.2,0.9,5.7,2.7,7.6c1.8,1.9,4.1,2.9,7.1,2.9c2.9,0,5.3-1,7-2.9s2.6-4.5,2.6-7.6V2636h8.5L-989.3,2659.3L-989.3,2659.3z"/>
	<path class="st4" d="M-982.5,2677.1V2636h15.8c3.1,0,5.9,0.5,8.6,1.6c2.7,1.1,5,2.5,6.9,4.3s3.5,4,4.6,6.6c1.1,2.5,1.7,5.3,1.7,8.2
		s-0.6,5.5-1.7,8.1c-1.1,2.5-2.6,4.7-4.6,6.5c-1.9,1.8-4.2,3.3-6.9,4.3c-2.7,1.1-5.5,1.6-8.6,1.6L-982.5,2677.1L-982.5,2677.1z
		 M-966.8,2643.5h-7.2v26h7.2c1.8,0,3.5-0.3,5.1-1s3-1.6,4.1-2.7c1.2-1.2,2.1-2.5,2.8-4.1s1-3.3,1-5.1s-0.3-3.6-1-5.2
		c-0.7-1.6-1.6-3-2.8-4.2s-2.6-2.1-4.1-2.8C-963.3,2643.9-965,2643.5-966.8,2643.5z"/>
	<path class="st4" d="M-897.1,2656.5c0,2.9-0.6,5.7-1.7,8.3c-1.1,2.6-2.7,4.9-4.6,6.8c-1.9,1.9-4.2,3.4-6.9,4.5s-5.5,1.6-8.6,1.6
		c-3,0-5.9-0.5-8.5-1.6c-2.7-1.1-5-2.6-6.9-4.5s-3.5-4.2-4.6-6.8s-1.7-5.4-1.7-8.3c0-2.9,0.6-5.7,1.7-8.3c1.1-2.6,2.7-4.9,4.6-6.8
		c1.9-1.9,4.2-3.4,6.9-4.5s5.5-1.6,8.5-1.6c3.1,0,5.9,0.5,8.6,1.6c2.7,1.1,5,2.6,6.9,4.5s3.5,4.2,4.6,6.8
		C-897.7,2650.8-897.1,2653.6-897.1,2656.5z M-905.9,2656.5c0-1.9-0.3-3.7-1-5.3s-1.6-3-2.7-4.2c-1.2-1.2-2.5-2.1-4.1-2.8
		s-3.3-1-5.2-1c-1.8,0-3.6,0.3-5.1,1c-1.6,0.7-3,1.6-4.1,2.8c-1.2,1.2-2.1,2.6-2.7,4.2c-0.7,1.6-1,3.4-1,5.3c0,1.9,0.3,3.6,1,5.3
		c0.7,1.6,1.6,3.1,2.7,4.3c1.2,1.2,2.5,2.1,4.1,2.8s3.3,1,5.1,1s3.6-0.3,5.2-1c1.6-0.7,3-1.6,4.1-2.8c1.2-1.2,2.1-2.6,2.7-4.3
		C-906.2,2660.2-905.9,2658.4-905.9,2656.5z"/>
	<path class="st4" d="M-876.6,2677.1h-8.9l-9.1-41.1h8.8l5.6,27.9l8.1-27.9h8l8,27.8l5.6-27.8h8.5l-9.1,41.1h-8.9l-8.2-28.7
		L-876.6,2677.1z"/>
	<path class="st4" d="M-837,2677.1V2636h8.5v33.6h22.5v7.5H-837z"/>
	<path class="st4" d="M-803.1,2677.1l16.9-41.1h9.9l16.7,41.1h-9.2l-4.2-10.8h-17l-4.2,10.8H-803.1z M-787.4,2659.4h11.8l-5.8-15.2
		L-787.4,2659.4z"/>
	<path class="st4" d="M-756.2,2635.9h8.1l20.5,26.6v-26.6h8v41.1h-7.5l-21-27.5v27.5h-8.1V2635.9z"/>
	<path class="st4" d="M-712.1,2677.1V2636h31.6v7.4h-23.1v9.4h15.2v7.2h-15.2v9.8h23.3v7.4L-712.1,2677.1L-712.1,2677.1z"/>
</g>
</svg>
